<svg xmlns="http://www.w3.org/2000/svg" width="224" height="40" viewBox="0 0 224 40" fill="none">
    <path fill-rule="evenodd" clip-rule="evenodd" d="M54.5274 39.5464H30.7239C30.1459 39.5374 29.5758 39.3147 29.2084 38.8267L18.3448 24.3601C17.5902 23.3581 18.1138 21.8865 19.3708 21.5918C21.2246 21.1558 23.0138 20.2881 24.1579 18.739C25.4796 16.9499 26.0312 14.6153 25.8279 12.3374C25.517 8.85106 23.4911 5.89037 20.0777 4.77344C18.7652 4.344 17.0927 4.11325 14.8663 4.11325H2.22446C1.23122 4.11325 0.425873 3.32006 0.425873 2.34156C0.425873 1.36325 1.23122 0.570061 2.22446 0.570061H14.8663C17.4633 0.570061 19.5038 0.868187 21.202 1.42381C22.982 2.00637 24.3414 2.85375 25.5228 3.92406C27.8369 6.0205 29.1395 8.98388 29.4114 12.0332C29.6858 15.1074 28.906 18.3066 27.0529 20.8149C25.9303 22.3347 24.4219 23.448 22.6891 24.2048L31.5541 36.0098H54.5274C59.2266 36.0032 63.4739 34.2105 66.5407 31.312C68.1753 29.7673 69.4756 27.9073 70.3309 25.8374C71.0702 24.0456 71.4763 22.0964 71.4763 20.0581C71.4827 19.5305 71.4459 18.9388 71.3976 18.4141C71.3082 17.4434 72.0354 16.5849 73.0208 16.4971C74.0063 16.4094 74.8782 17.1253 74.967 18.0959L74.9824 18.2623C75.0338 18.8186 75.0829 19.3495 75.0743 20.0581C75.0743 22.6626 74.5349 25.1477 73.5564 27.4187C72.5094 29.8491 70.9585 32.0344 69.0276 33.8591C65.3097 37.3728 60.1819 39.5464 54.5274 39.5464ZM10.6143 20.0108C9.62103 20.0108 8.81545 19.2173 8.81545 18.239C8.81545 17.2608 9.62103 16.4675 10.6143 16.4675H14.3847C15.8645 16.4675 17.183 15.2861 17.183 13.8286C17.183 12.3711 15.8645 11.1899 14.3847 11.1899H10.6143C9.62103 11.1899 8.81545 10.3965 8.81545 9.41819C8.81545 8.43994 9.62103 7.6465 10.6143 7.6465H13.6285C14.7027 7.6465 15.5641 7.75857 16.3251 7.98269C18.9409 8.75369 20.6984 10.968 20.7618 13.6673C20.8312 16.6258 18.9476 18.7898 16.1726 19.6123C15.2771 19.8777 14.2845 20.0108 13.1967 20.0108H10.6143ZM110.109 8.08494C111.102 8.08494 111.907 8.87844 111.907 9.85669C111.907 10.8349 111.102 11.6284 110.109 11.6284H96.7979V37.7747C96.7979 38.7529 95.9926 39.5464 94.9995 39.5464H86.905C85.912 39.5464 85.1061 38.7529 85.1061 37.7747V11.6284H72.2372C71.2441 11.6284 70.4382 10.8349 70.4382 9.85669C70.4382 8.87844 71.2441 8.08494 72.2372 8.08494H86.905C87.8981 8.08494 88.704 8.87844 88.704 9.85669V36.0032H93.2005V9.85669C93.2005 8.87844 94.0058 8.08494 94.9995 8.08494H110.109ZM21.4821 39.207C22.2852 38.634 22.4647 37.5276 21.8827 36.7366L12.4771 23.8454C11.926 23.0354 10.8124 22.8184 9.98966 23.3611C9.49242 23.6892 9.18929 24.2378 9.18878 24.8281V36.0029H4.02328V9.42044C4.02328 8.44187 3.21769 7.64869 2.22446 7.64869C1.23122 7.64869 0.425873 8.44187 0.425873 9.42044V37.7747C0.425873 38.7529 1.23122 39.5461 2.22446 39.5461H10.9876C11.9808 39.5461 12.7862 38.7529 12.7862 37.7747V30.4001L18.9739 38.8125C19.5557 39.6035 20.679 39.7803 21.4821 39.207ZM119.209 23.6016C119.209 24.5798 120.015 25.3731 121.008 25.3731H128.881C129.874 25.3731 130.679 24.5798 130.679 23.6016C130.679 23.3454 130.609 23.1081 130.525 22.8823L130.221 22.0288C129.044 18.7205 127.868 15.4124 126.685 12.1062C126.355 11.1853 125.33 10.7019 124.394 11.0266C123.46 11.3513 122.968 12.3616 123.298 13.2827C124.839 17.5898 125.692 19.9819 126.35 21.8298H121.008C120.015 21.8298 119.209 22.6233 119.209 23.6016ZM147.416 28.9165V2.34158C147.416 1.36326 148.222 0.570072 149.215 0.570072L161.061 0.585197C166.579 0.585197 171.626 2.24832 175.628 6.07251C176.741 7.13551 177.685 8.27932 178.506 9.57401C179.03 10.4033 178.772 11.4941 177.93 12.01C177.088 12.5259 175.981 12.2718 175.457 11.4424C174.81 10.4229 174.003 9.44238 173.127 8.60526C169.796 5.42138 165.643 4.1287 161.061 4.1287H151.014V30.6883C151.014 31.6665 150.208 32.4597 149.215 32.4597H140.31C139.572 32.4673 138.877 32.0286 138.605 31.3042L128.367 4.11326H54.5274C49.8279 4.11326 45.5809 5.90601 42.5141 8.8042C39.4645 11.6861 37.578 15.6653 37.578 20.0581C37.578 23.5539 38.7536 26.8501 40.9411 29.6016C41.5504 30.3696 41.4118 31.4793 40.632 32.0794C39.8519 32.6792 38.7256 32.5429 38.1163 31.7747C35.4524 28.4241 33.9805 24.3186 33.9805 20.0581C33.9805 14.6668 36.2915 9.78714 40.0267 6.25732C43.7451 2.74345 48.8726 0.570072 54.5274 0.570072H129.617C130.405 0.570072 131.075 1.06907 131.318 1.7637L141.542 28.9165H147.416ZM188.744 5.82938C185.928 8.57938 183.814 12.2886 181.821 16.7942C181.618 17.2533 181.416 17.7147 181.213 18.1772L181.208 18.1882L181.204 18.1972L181.201 18.2057L181.197 18.2126C179.087 23.0313 176.926 27.9663 172.995 31.6296C170.008 34.4131 166.24 36.0024 161.061 36.0024L135.224 36.0032L133.102 30.0999C132.843 29.3733 132.15 28.9192 131.409 28.9165H118.102C117.279 28.9165 116.585 29.4614 116.371 30.2051L114.287 36.0032H109.138L118.912 10.0442C119.258 9.12719 118.782 8.10744 117.851 7.76731C116.92 7.42725 115.885 7.895 115.54 8.81225L104.88 37.1199C104.416 38.2688 105.272 39.5464 106.552 39.5464H115.554C116.316 39.5464 116.994 39.0698 117.247 38.3628L119.371 32.4597H130.141L132.227 38.2598C132.513 39.054 133.135 39.5464 133.958 39.5464L161.061 39.5457C167.246 39.5457 171.796 37.5991 175.455 34.1904C179.886 30.061 182.238 24.7233 184.601 19.3595C184.782 18.9482 184.963 18.5368 185.145 18.1258C186.959 14.0332 188.849 10.7019 191.273 8.3345C194.06 5.61281 197.673 4.11325 202.925 4.11325C204.164 4.11325 205.364 4.23119 206.578 4.48119C207.548 4.67994 208.498 4.06638 208.7 3.11081C208.901 2.1555 208.278 1.2195 207.308 1.021C205.878 0.726062 204.386 0.570061 202.925 0.570061C196.623 0.570061 192.216 2.43825 188.744 5.82938ZM215.044 8.90626C214.334 8.22582 214.318 7.10719 215.008 6.40794C215.699 5.70876 216.835 5.69313 217.545 6.37332C221.306 9.98926 223.471 14.8694 223.471 20.0581C223.471 31.1164 213.94 39.5464 202.925 39.5464C195.946 39.5464 189.31 36.1616 185.495 30.3691C184.955 29.5515 185.191 28.4575 186.022 27.9263C186.852 27.3953 187.963 27.6274 188.501 28.4453C191.667 33.2517 197.142 36.0032 202.925 36.0032C211.968 36.0032 219.874 29.1726 219.874 20.0581C219.874 15.8171 218.118 11.8616 215.044 8.90626ZM157.308 14.7586C156.315 14.7586 155.509 15.5517 155.509 16.53V30.7034C155.509 31.6816 156.315 32.4673 157.308 32.468H161.01C164.259 32.4712 167.536 31.1809 169.855 28.9329C173.56 25.3413 174.37 19.1206 172.222 14.5339C170.189 10.1929 165.729 7.67187 160.958 7.67187H157.308C156.315 7.67187 155.509 8.46506 155.509 9.44362C155.509 10.4219 156.315 11.2151 157.308 11.2151H160.958C164.344 11.2151 167.509 12.9141 168.961 16.0151C170.47 19.2368 169.951 23.8826 167.339 26.4141C165.708 27.9949 163.294 28.9407 161.01 28.9387L159.107 28.9382V16.53C159.107 15.5517 158.301 14.7586 157.308 14.7586ZM54.3884 11.1999C53.3951 11.1999 52.5898 10.4065 52.5898 9.42824C52.5898 8.44993 53.3951 7.65649 54.3884 7.65649C57.8276 7.65649 60.9446 9.0503 63.2036 11.303C65.4537 13.5471 66.8453 16.6431 66.8453 20.0581C66.8453 23.4736 65.4537 26.5693 63.2036 28.8132C60.9446 31.0662 57.8276 32.4597 54.3884 32.4597C50.9493 32.4597 47.832 31.0662 45.5734 28.8132C43.3234 26.5693 41.9316 23.4736 41.9316 20.0581C41.9316 19.0798 42.7369 18.2866 43.7302 18.2866C44.7234 18.2866 45.529 19.0798 45.529 20.0581C45.529 22.5134 46.5232 24.7327 48.1307 26.3359C49.7293 27.9302 51.9416 28.9165 54.3884 28.9165C56.8354 28.9165 59.0476 27.9302 60.6462 26.3359C62.2534 24.7327 63.2479 22.5134 63.2479 20.0581C63.2479 17.603 62.2534 15.3838 60.6462 13.7805C59.0476 12.1862 56.8354 11.1999 54.3884 11.1999ZM201.126 9.42844C201.126 10.4067 201.931 11.2002 202.925 11.2002C205.371 11.2002 207.584 12.1862 209.182 13.7807C210.79 15.3838 211.784 17.6032 211.784 20.0584C211.784 22.5134 210.79 24.7329 209.182 26.3359C207.584 27.9304 205.371 28.9167 202.925 28.9167C200.478 28.9167 198.265 27.9304 196.667 26.3359C195.06 24.7329 194.065 22.5134 194.065 20.0584C194.065 19.0801 193.26 18.2866 192.266 18.2866C191.273 18.2866 190.468 19.0801 190.468 20.0584C190.468 23.4739 191.86 26.5696 194.11 28.8135C196.368 31.0664 199.486 32.4599 202.925 32.4599C206.364 32.4599 209.481 31.0664 211.74 28.8135C213.99 26.5696 215.381 23.4739 215.381 20.0584C215.381 16.6431 213.99 13.5471 211.74 11.3032C209.481 9.05031 206.364 7.65675 202.925 7.65675C201.931 7.65675 201.126 8.45019 201.126 9.42844Z" fill="#0090E3"/>

    <path xmlns="http://www.w3.org/2000/svg" fill-rule="evenodd" clip-rule="evenodd" d="M54.5274 39.5464H30.7239C30.1459 39.5374 29.5758 39.3147 29.2084 38.8267L18.3448 24.3601C17.5902 23.3581 18.1138 21.8865 19.3708 21.5918C21.2246 21.1558 23.0138 20.2881 24.1579 18.739C25.4796 16.9499 26.0312 14.6153 25.8279 12.3374C25.517 8.85106 23.4911 5.89037 20.0777 4.77344C18.7652 4.344 17.0927 4.11325 14.8663 4.11325H2.22446C1.23122 4.11325 0.425873 3.32006 0.425873 2.34156C0.425873 1.36325 1.23122 0.570061 2.22446 0.570061H14.8663C17.4633 0.570061 19.5038 0.868187 21.202 1.42381C22.982 2.00637 24.3414 2.85375 25.5228 3.92406C27.8369 6.0205 29.1395 8.98388 29.4114 12.0332C29.6858 15.1074 28.906 18.3066 27.0529 20.8149C25.9303 22.3347 24.4219 23.448 22.6891 24.2048L31.5541 36.0098H54.5274C59.2266 36.0032 63.4739 34.2105 66.5407 31.312C68.1753 29.7673 69.4756 27.9073 70.3309 25.8374C71.0702 24.0456 71.4763 22.0964 71.4763 20.0581C71.4827 19.5305 71.4459 18.9388 71.3976 18.4141C71.3082 17.4434 72.0354 16.5849 73.0208 16.4971C74.0063 16.4094 74.8782 17.1253 74.967 18.0959L74.9824 18.2623C75.0338 18.8186 75.0829 19.3495 75.0743 20.0581C75.0743 22.6626 74.5349 25.1477 73.5564 27.4187C72.5094 29.8491 70.9585 32.0344 69.0276 33.8591C65.3097 37.3728 60.1819 39.5464 54.5274 39.5464ZM10.6143 20.0108C9.62103 20.0108 8.81545 19.2173 8.81545 18.239C8.81545 17.2608 9.62103 16.4675 10.6143 16.4675H14.3847C15.8645 16.4675 17.183 15.2861 17.183 13.8286C17.183 12.3711 15.8645 11.1899 14.3847 11.1899H10.6143C9.62103 11.1899 8.81545 10.3965 8.81545 9.41819C8.81545 8.43994 9.62103 7.6465 10.6143 7.6465H13.6285C14.7027 7.6465 15.5641 7.75857 16.3251 7.98269C18.9409 8.75369 20.6984 10.968 20.7618 13.6673C20.8312 16.6258 18.9476 18.7898 16.1726 19.6123C15.2771 19.8777 14.2845 20.0108 13.1967 20.0108H10.6143ZM110.109 8.08494C111.102 8.08494 111.907 8.87844 111.907 9.85669C111.907 10.8349 111.102 11.6284 110.109 11.6284H96.7979V37.7747C96.7979 38.7529 95.9926 39.5464 94.9995 39.5464H86.905C85.912 39.5464 85.1061 38.7529 85.1061 37.7747V11.6284H72.2372C71.2441 11.6284 70.4382 10.8349 70.4382 9.85669C70.4382 8.87844 71.2441 8.08494 72.2372 8.08494H86.905C87.8981 8.08494 88.704 8.87844 88.704 9.85669V36.0032H93.2005V9.85669C93.2005 8.87844 94.0058 8.08494 94.9995 8.08494H110.109ZM21.4821 39.207C22.2852 38.634 22.4647 37.5276 21.8827 36.7366L12.4771 23.8454C11.926 23.0354 10.8124 22.8184 9.98966 23.3611C9.49242 23.6892 9.18929 24.2378 9.18878 24.8281V36.0029H4.02328V9.42044C4.02328 8.44187 3.21769 7.64869 2.22446 7.64869C1.23122 7.64869 0.425873 8.44187 0.425873 9.42044V37.7747C0.425873 38.7529 1.23122 39.5461 2.22446 39.5461H10.9876C11.9808 39.5461 12.7862 38.7529 12.7862 37.7747V30.4001L18.9739 38.8125C19.5557 39.6035 20.679 39.7803 21.4821 39.207ZM119.209 23.6016C119.209 24.5798 120.015 25.3731 121.008 25.3731H128.881C129.874 25.3731 130.679 24.5798 130.679 23.6016C130.679 23.3454 130.609 23.1081 130.525 22.8823L130.221 22.0288C129.044 18.7205 127.868 15.4124 126.685 12.1062C126.355 11.1853 125.33 10.7019 124.394 11.0266C123.46 11.3513 122.968 12.3616 123.298 13.2827C124.839 17.5898 125.692 19.9819 126.35 21.8298H121.008C120.015 21.8298 119.209 22.6233 119.209 23.6016ZM147.416 28.9165V2.34158C147.416 1.36326 148.222 0.570072 149.215 0.570072L161.061 0.585197C166.579 0.585197 171.626 2.24832 175.628 6.07251C176.741 7.13551 177.685 8.27932 178.506 9.57401C179.03 10.4033 178.772 11.4941 177.93 12.01C177.088 12.5259 175.981 12.2718 175.457 11.4424C174.81 10.4229 174.003 9.44238 173.127 8.60526C169.796 5.42138 165.643 4.1287 161.061 4.1287H151.014V30.6883C151.014 31.6665 150.208 32.4597 149.215 32.4597H140.31C139.572 32.4673 138.877 32.0286 138.605 31.3042L128.367 4.11326H54.5274C49.8279 4.11326 45.5809 5.90601 42.5141 8.8042C39.4645 11.6861 37.578 15.6653 37.578 20.0581C37.578 23.5539 38.7536 26.8501 40.9411 29.6016C41.5504 30.3696 41.4118 31.4793 40.632 32.0794C39.8519 32.6792 38.7256 32.5429 38.1163 31.7747C35.4524 28.4241 33.9805 24.3186 33.9805 20.0581C33.9805 14.6668 36.2915 9.78714 40.0267 6.25732C43.7451 2.74345 48.8726 0.570072 54.5274 0.570072H129.617C130.405 0.570072 131.075 1.06907 131.318 1.7637L141.542 28.9165H147.416ZM188.744 5.82938C185.928 8.57938 183.814 12.2886 181.821 16.7942C181.618 17.2533 181.416 17.7147 181.213 18.1772L181.208 18.1882L181.204 18.1972L181.201 18.2057L181.197 18.2126C179.087 23.0313 176.926 27.9663 172.995 31.6296C170.008 34.4131 166.24 36.0024 161.061 36.0024L135.224 36.0032L133.102 30.0999C132.843 29.3733 132.15 28.9192 131.409 28.9165H118.102C117.279 28.9165 116.585 29.4614 116.371 30.2051L114.287 36.0032H109.138L118.912 10.0442C119.258 9.12719 118.782 8.10744 117.851 7.76731C116.92 7.42725 115.885 7.895 115.54 8.81225L104.88 37.1199C104.416 38.2688 105.272 39.5464 106.552 39.5464H115.554C116.316 39.5464 116.994 39.0698 117.247 38.3628L119.371 32.4597H130.141L132.227 38.2598C132.513 39.054 133.135 39.5464 133.958 39.5464L161.061 39.5457C167.246 39.5457 171.796 37.5991 175.455 34.1904C179.886 30.061 182.238 24.7233 184.601 19.3595C184.782 18.9482 184.963 18.5368 185.145 18.1258C186.959 14.0332 188.849 10.7019 191.273 8.3345C194.06 5.61281 197.673 4.11325 202.925 4.11325C204.164 4.11325 205.364 4.23119 206.578 4.48119C207.548 4.67994 208.498 4.06638 208.7 3.11081C208.901 2.1555 208.278 1.2195 207.308 1.021C205.878 0.726062 204.386 0.570061 202.925 0.570061C196.623 0.570061 192.216 2.43825 188.744 5.82938ZM215.044 8.90626C214.334 8.22582 214.318 7.10719 215.008 6.40794C215.699 5.70876 216.835 5.69313 217.545 6.37332C221.306 9.98926 223.471 14.8694 223.471 20.0581C223.471 31.1164 213.94 39.5464 202.925 39.5464C195.946 39.5464 189.31 36.1616 185.495 30.3691C184.955 29.5515 185.191 28.4575 186.022 27.9263C186.852 27.3953 187.963 27.6274 188.501 28.4453C191.667 33.2517 197.142 36.0032 202.925 36.0032C211.968 36.0032 219.874 29.1726 219.874 20.0581C219.874 15.8171 218.118 11.8616 215.044 8.90626ZM157.308 14.7586C156.315 14.7586 155.509 15.5517 155.509 16.53V30.7034C155.509 31.6816 156.315 32.4673 157.308 32.468H161.01C164.259 32.4712 167.536 31.1809 169.855 28.9329C173.56 25.3413 174.37 19.1206 172.222 14.5339C170.189 10.1929 165.729 7.67187 160.958 7.67187H157.308C156.315 7.67187 155.509 8.46506 155.509 9.44362C155.509 10.4219 156.315 11.2151 157.308 11.2151H160.958C164.344 11.2151 167.509 12.9141 168.961 16.0151C170.47 19.2368 169.951 23.8826 167.339 26.4141C165.708 27.9949 163.294 28.9407 161.01 28.9387L159.107 28.9382V16.53C159.107 15.5517 158.301 14.7586 157.308 14.7586ZM54.3884 11.1999C53.3951 11.1999 52.5898 10.4065 52.5898 9.42824C52.5898 8.44993 53.3951 7.65649 54.3884 7.65649C57.8276 7.65649 60.9446 9.0503 63.2036 11.303C65.4537 13.5471 66.8453 16.6431 66.8453 20.0581C66.8453 23.4736 65.4537 26.5693 63.2036 28.8132C60.9446 31.0662 57.8276 32.4597 54.3884 32.4597C50.9493 32.4597 47.832 31.0662 45.5734 28.8132C43.3234 26.5693 41.9316 23.4736 41.9316 20.0581C41.9316 19.0798 42.7369 18.2866 43.7302 18.2866C44.7234 18.2866 45.529 19.0798 45.529 20.0581C45.529 22.5134 46.5232 24.7327 48.1307 26.3359C49.7293 27.9302 51.9416 28.9165 54.3884 28.9165C56.8354 28.9165 59.0476 27.9302 60.6462 26.3359C62.2534 24.7327 63.2479 22.5134 63.2479 20.0581C63.2479 17.603 62.2534 15.3838 60.6462 13.7805C59.0476 12.1862 56.8354 11.1999 54.3884 11.1999ZM201.126 9.42844C201.126 10.4067 201.931 11.2002 202.925 11.2002C205.371 11.2002 207.584 12.1862 209.182 13.7807C210.79 15.3838 211.784 17.6032 211.784 20.0584C211.784 22.5134 210.79 24.7329 209.182 26.3359C207.584 27.9304 205.371 28.9167 202.925 28.9167C200.478 28.9167 198.265 27.9304 196.667 26.3359C195.06 24.7329 194.065 22.5134 194.065 20.0584C194.065 19.0801 193.26 18.2866 192.266 18.2866C191.273 18.2866 190.468 19.0801 190.468 20.0584C190.468 23.4739 191.86 26.5696 194.11 28.8135C196.368 31.0664 199.486 32.4599 202.925 32.4599C206.364 32.4599 209.481 31.0664 211.74 28.8135C213.99 26.5696 215.381 23.4739 215.381 20.0584C215.381 16.6431 213.99 13.5471 211.74 11.3032C209.481 9.05031 206.364 7.65675 202.925 7.65675C201.931 7.65675 201.126 8.45019 201.126 9.42844Z" fill="#0090E3"/>
</svg>