<svg width="100" height="100" viewBox="0 0 100 100" fill="none" xmlns="http://www.w3.org/2000/svg">
<circle cx="50" cy="50" r="50" fill="#191919"/>
<g clip-path="url(#clip0_480_925)">
<path d="M48.0943 22.7944C51.7875 22.7944 54.9023 25.7677 54.9023 29.293C54.9023 32.8183 51.7875 35.7916 48.0943 35.7916C44.4011 35.7916 41.3979 32.8183 41.3979 29.293C41.3979 25.7677 44.4011 22.7944 48.0943 22.7944Z" fill="white"/>
<path d="M40.6597 35.792C42.4995 37.7393 45.1347 38.988 48.0918 38.988C51.049 38.988 53.7957 37.7393 55.6356 35.792C57.2418 37.4922 58.248 39.7195 58.248 42.184V43.782C58.248 44.6653 57.4993 45.38 56.5739 45.38H39.7213C38.796 45.38 38.0472 44.6653 38.0472 43.782V42.184C38.0472 39.7195 39.0534 37.4922 40.6597 35.792Z" fill="white"/>
<path d="M62.1656 71.8433L70.6969 55.5164C71.5207 53.9398 73.5256 53.2969 75.1793 54.079L77.4091 55.1333C78.2393 55.5263 78.5772 56.4895 78.1628 57.2806L68.1181 76.4567C67.7051 77.2475 66.7003 77.5622 65.8767 77.1745L63.6756 76.1336C62.0155 75.3487 61.3388 73.4258 62.1656 71.8433Z" fill="white"/>
<path d="M22.5677 49.1828C23.9406 48.224 25.8491 48.4157 26.9874 49.5983L36.1391 60.3369C36.7753 60.9761 37.9806 61.3596 38.6168 61.3596H46.4182C47.3558 61.3596 48.0923 60.6566 48.0923 59.7616C48.0923 58.8666 47.3558 58.1636 46.4182 58.1636C44.176 58.1636 41.6937 58.1636 39.7218 58.1636C37.8803 58.1636 36.3736 56.7254 36.3736 54.9676C36.3736 53.2098 37.8803 51.7715 39.7218 51.7715C47.5841 51.7715 40.0845 51.7715 48.4941 51.7715C49.3285 51.7715 49.7446 51.2665 50.4026 50.7168C52.9929 48.4918 56.8701 47.4198 60.7953 48.2883C62.9748 48.7705 64.4445 49.6109 65.9352 50.7378L65.9848 50.6994L68.4062 52.7335L58.8902 70.9476H56.0723H39.7218C36.5745 70.9476 33.561 69.5094 31.686 67.1124L21.8647 53.6892C20.7598 52.2828 21.0611 50.2376 22.5677 49.1828Z" fill="white"/>
</g>
<defs>
<clipPath id="clip0_480_925">
<rect width="57.1429" height="54.5455" fill="white" transform="matrix(-1 0 0 1 78.3428 22.7944)"/>
</clipPath>
</defs>
</svg>
