<svg width="100" height="100" viewBox="0 0 100 100" fill="none" xmlns="http://www.w3.org/2000/svg">
<circle cx="50" cy="50" r="50" fill="#191919"/>
<g clip-path="url(#clip0_480_1110)">
<path d="M46.6202 54.0634C46.5742 53.9761 38.5094 46.4506 38.4365 46.3817C37.4629 45.2268 35.4703 44.9411 34.1298 46.2148C32.8883 47.2768 33.0768 49.2404 33.8955 49.8886L41.8056 57.4312C42.3915 57.9877 42.3915 58.8504 41.8056 59.4071C41.3133 59.9271 40.2513 59.9314 39.7549 59.4071L31.8154 51.8647C30.99 51.0806 30.5264 50.0172 30.5264 48.9082V34.4419C30.5264 32.9111 29.208 31.6587 27.5967 31.6587C25.9854 31.6587 24.667 32.9111 24.667 34.4419V49.7031C24.667 50.7051 24.9599 51.5863 25.5165 52.4491L31.7063 62.2739H31.6938C32.6567 63.8011 33.4561 64.8076 33.4561 66.5879C33.4561 68.5974 33.4561 70.0467 33.4561 72.1079C33.4561 72.8764 34.1119 73.4995 34.9209 73.4995H48.2021C48.2021 67.6543 48.2021 63.4687 48.2021 57.8485C48.2021 56.3227 47.513 54.9114 46.6202 54.0634Z" fill="white"/>
<path d="M71.7373 31.6587C70.126 31.6587 68.8076 32.9111 68.8076 34.4419V48.9083C68.8076 50.0173 68.3439 51.0807 67.5186 51.8648L59.579 59.4072C59.0826 59.9315 58.0206 59.9272 57.5283 59.4072C56.9424 58.8506 56.9424 57.9878 57.5283 57.4312L65.4384 49.8887C66.2571 49.2405 66.4456 47.2769 65.2041 46.2148C63.8636 44.9412 61.871 45.2269 60.8974 46.3818C60.8246 46.4507 52.8573 53.9762 52.8114 54.0635C51.9187 54.9115 51.2295 56.3228 51.2295 57.8486C51.2295 61.7334 51.2295 63.8525 51.2295 64.959C51.2295 65.7146 51.2295 66.008 51.2295 66.0309C51.2295 67.1643 51.2295 69.4501 51.2295 73.4995H64.4131C65.2221 73.4995 65.8779 72.8764 65.8779 72.1079C65.8779 70.0201 65.8779 68.6754 65.8779 66.5879C65.8779 64.8077 66.6772 63.8012 67.6401 62.2739H67.6276L73.8175 52.4491C74.3741 51.5863 74.667 50.6123 74.667 49.6104V34.4419C74.667 32.9111 73.3486 31.6587 71.7373 31.6587Z" fill="white"/>
<path d="M63.6807 37.2251C62.4672 37.2251 61.4834 38.1597 61.4834 39.3125V42.8512C62.0164 42.7023 62.5652 42.5972 63.1313 42.5972C64.0998 42.5972 65.0382 42.8256 65.8779 43.255V39.3125C65.8779 38.1597 64.8941 37.2251 63.6807 37.2251Z" fill="white"/>
<path d="M35.6533 37.2251C34.4398 37.2251 33.4561 38.1597 33.4561 39.3125V43.2441C34.2758 42.8295 35.2228 42.5971 36.2026 42.5971C36.7679 42.5971 37.3166 42.7032 37.8506 42.8538V39.3125C37.8506 38.1597 36.8668 37.2251 35.6533 37.2251Z" fill="white"/>
<path d="M49.667 26C46.431 26 43.71 28.5849 43.71 31.6592C43.71 34.7334 46.431 37.2256 49.667 37.2256C52.903 37.2256 55.624 34.7334 55.624 31.6592C55.624 28.5849 52.903 26 49.667 26Z" fill="white"/>
<path d="M49.6671 40.0093C45.9219 40.0093 42.5008 41.6868 40.3555 44.2846C40.4329 44.3603 40.5261 44.4194 40.5986 44.4993C44.4239 48.1148 46.564 50.0463 47.6985 51.1421H51.7326C52.8592 50.0539 54.8819 48.1418 58.6597 44.5714C58.7514 44.4639 58.8737 44.3803 58.9755 44.2801C56.8301 41.6848 53.4104 40.0093 49.6671 40.0093Z" fill="white"/>
</g>
<defs>
<clipPath id="clip0_480_1110">
<rect width="50" height="47.5" fill="white" transform="translate(24.667 26)"/>
</clipPath>
</defs>
</svg>
