<svg width="100" height="100" viewBox="0 0 100 100" fill="none" xmlns="http://www.w3.org/2000/svg">
<circle cx="50" cy="50" r="50" fill="#191919"/>
<g clip-path="url(#clip0_492_1148)">
<path d="M29.9335 46.9036C33.1 46.9036 35.6669 44.465 35.6669 41.4569C35.6669 38.4488 33.1 36.0103 29.9335 36.0103C26.7671 36.0103 24.2002 38.4488 24.2002 41.4569C24.2002 44.465 26.7671 46.9036 29.9335 46.9036Z" fill="white"/>
<path d="M32.7997 49.6274H27.0663C23.913 49.6274 21.333 52.0784 21.333 55.0741V65.9674H24.1997V77.1331H35.6663V65.9674H38.533V55.0741C38.533 52.0784 35.953 49.6274 32.7997 49.6274Z" fill="white"/>
<path d="M70.0663 46.9036C73.2328 46.9036 75.7997 44.465 75.7997 41.4569C75.7997 38.4488 73.2328 36.0103 70.0663 36.0103C66.8999 36.0103 64.333 38.4488 64.333 41.4569C64.333 44.465 66.8999 46.9036 70.0663 46.9036Z" fill="white"/>
<path d="M72.9325 49.6274H67.1992C64.0458 49.6274 61.4658 52.0784 61.4658 55.0741V65.9674H64.3325V77.1331H75.7992V65.9674H78.6658V55.0741C78.6658 52.0784 76.0858 49.6274 72.9325 49.6274Z" fill="white"/>
<path d="M49.9999 33.5598C53.1664 33.5598 55.7333 31.1213 55.7333 28.1132C55.7333 25.1051 53.1664 22.6665 49.9999 22.6665C46.8335 22.6665 44.2666 25.1051 44.2666 28.1132C44.2666 31.1213 46.8335 33.5598 49.9999 33.5598Z" fill="white"/>
<path d="M52.8661 36.2837H47.1327C43.9794 36.2837 41.3994 38.7347 41.3994 41.7304V52.6237H44.2661V63.7894H55.7327V52.6237H58.5994V41.7304C58.5994 38.7347 56.0194 36.2837 52.8661 36.2837Z" fill="white"/>
</g>
<defs>
<clipPath id="clip0_492_1148">
<rect width="57.3333" height="54.4667" fill="white" transform="translate(21.333 22.6665)"/>
</clipPath>
</defs>
</svg>
