<svg width="100" height="100" viewBox="0 0 100 100" fill="none" xmlns="http://www.w3.org/2000/svg">
<circle cx="50" cy="50" r="50" fill="#191919"/>
<g clip-path="url(#clip0_492_1192)">
<path d="M51.0817 27.543C50.1858 27.543 49.4594 26.8166 49.4594 25.9207V24H45.3487V25.9207C45.3487 26.8166 44.6223 27.543 43.7264 27.543H40.9648V30.9208H53.8434V27.543H51.0817Z" fill="white"/>
<path d="M76.0621 35.9238C74.9059 35.0337 73.2414 35.249 72.3512 36.4051L71.751 37.1838L75.9345 40.4252L76.5433 39.6336C77.4335 38.4786 77.2173 36.8139 76.0621 35.9238Z" fill="white"/>
<path d="M38.2107 50.8807H56.5971C56.7563 50.8807 56.9099 50.9045 57.0553 50.9474L65.8987 39.4643V32.0237C65.8987 29.5897 63.9184 27.6096 61.4845 27.6096H57.0876V32.5431C57.0876 33.439 56.3612 34.1654 55.4652 34.1654H39.3416C38.4457 34.1654 37.7193 33.439 37.7193 32.5431V27.6094H33.3224C30.8884 27.6094 28.9082 29.5896 28.9082 32.0235V70.919C28.9082 73.353 30.8885 75.3331 33.3224 75.3331H61.4843C63.9183 75.3331 65.8984 73.3529 65.8984 70.919V58.7714L64.3949 60.7236C64.1634 61.0253 63.8325 61.2352 63.4605 61.3173L56.9657 62.7557C56.8489 62.7817 56.7321 62.7946 56.6153 62.7946C56.2595 62.7946 55.9112 62.6778 55.6246 62.4572C55.244 62.1641 55.0136 61.7173 54.9941 61.2372L54.7259 54.5899C54.7196 54.4324 54.7377 54.2762 54.7761 54.1254H38.2107C37.3148 54.1254 36.5884 53.399 36.5884 52.5031C36.5884 51.6071 37.3147 50.8807 38.2107 50.8807ZM38.2107 59.5497H48.8613C49.7572 59.5497 50.4836 60.2761 50.4836 61.172C50.4836 62.0679 49.7572 62.7943 48.8613 62.7943H38.2107C37.3148 62.7943 36.5884 62.0679 36.5884 61.172C36.5884 60.2761 37.3148 59.5497 38.2107 59.5497ZM38.2107 42.2116H56.5971C57.493 42.2116 58.2194 42.938 58.2194 43.834C58.2194 44.7299 57.493 45.4563 56.5971 45.4563H38.2107C37.3148 45.4563 36.5884 44.7299 36.5884 43.834C36.5884 42.938 37.3147 42.2116 38.2107 42.2116Z" fill="white"/>
<path d="M69.7716 39.7539L57.9922 55.0484L58.1577 59.1681L62.1844 58.2769L73.954 42.9942L69.7716 39.7539Z" fill="white"/>
</g>
<defs>
<clipPath id="clip0_492_1192">
<rect width="51.3333" height="51.3333" fill="white" transform="translate(27.333 24)"/>
</clipPath>
</defs>
</svg>
