<svg width="100" height="100" viewBox="0 0 100 100" fill="none" xmlns="http://www.w3.org/2000/svg">
<circle cx="50" cy="50" r="50" fill="#191919"/>
<g clip-path="url(#clip0_492_1230)">
<path d="M50.3333 20.6665C33.5806 20.6665 20 34.2471 20 50.9998C20 67.7524 33.5806 81.3332 50.3333 81.3332C67.0861 81.3332 80.6667 67.7524 80.6667 50.9998C80.6667 34.2471 67.0861 20.6665 50.3333 20.6665ZM67.0902 67.7568C62.6143 72.2328 56.6632 74.6978 50.3333 74.6978C44.0034 74.6978 38.0524 72.2328 33.5764 67.7568C29.1004 63.2808 26.6354 57.3298 26.6354 50.9998C26.6354 44.6699 29.1004 38.7189 33.5764 34.2429C38.0524 29.7669 44.0034 27.3019 50.3333 27.3019C56.6632 27.3019 62.6143 29.7669 67.0902 34.2429C71.5663 38.7189 74.0312 44.6699 74.0312 50.9998C74.0312 57.3298 71.5663 63.2808 67.0902 67.7568Z" fill="white"/>
<path d="M53.1768 33.2134V47.2078C53.5357 47.4774 53.8552 47.7968 54.1248 48.156H63.6039V53.8435H54.125C53.2603 54.9946 51.8838 55.7393 50.3331 55.7393C49.5865 55.7393 48.8806 55.5662 48.2526 55.2587L38.7344 64.7768C41.868 67.4176 45.9143 69.0099 50.3331 69.0099C60.2799 69.0099 68.3435 60.9463 68.3435 50.9995C68.3435 42.0205 61.7723 34.5768 53.1768 33.2134Z" fill="white"/>
<path d="M32.3232 50.9995C32.3232 55.4183 33.9155 59.4647 36.5564 62.5984L46.0747 53.0802C45.7672 52.4521 45.5941 51.7461 45.5941 50.9995C45.5941 49.4489 46.3388 48.0723 47.4899 47.2076V33.2134C38.8944 34.5768 32.3232 42.0205 32.3232 50.9995Z" fill="white"/>
</g>
<defs>
<clipPath id="clip0_492_1230">
<rect width="60.6667" height="60.6667" fill="white" transform="translate(20 20.6665)"/>
</clipPath>
</defs>
</svg>
