<svg width="244" height="76" viewBox="0 0 244 76" fill="none" xmlns="http://www.w3.org/2000/svg">
<path d="M94.5237 29.8515H97.6041V48H94.5237V29.8515ZM109.476 32.6351V48H106.395V32.6351H100.902V29.8515H114.968V32.6351H109.476ZM117.656 41.6165V38.8701H126.304V41.6165H117.656ZM133.26 43.8804L131.442 48H128.176L136.192 29.8515H139.458L147.438 48H144.172L142.353 43.8804H133.26ZM141.128 41.0227L137.825 33.5629L134.522 41.0227H141.128ZM152.452 48H149.557V34.1938H152.452V36.6804C152.922 35.8392 153.565 35.1835 154.382 34.7134C155.223 34.2186 156.114 33.9711 157.054 33.9711C158.662 33.9711 159.936 34.4536 160.876 35.4186C161.817 36.3835 162.287 37.7567 162.287 39.5381V48H159.355V40.4289C159.355 37.8804 158.303 36.6062 156.2 36.6062C155.136 36.6062 154.246 36.9526 153.528 37.6454C152.81 38.3134 152.452 39.266 152.452 40.5031V48ZM179.093 34.1938V46.2186C179.093 48.5938 178.45 50.4124 177.164 51.6742C175.877 52.9361 174.157 53.567 172.005 53.567C169.976 53.567 168.095 52.9113 166.364 51.6L167.737 49.4103C169.122 50.4247 170.495 50.932 171.856 50.932C174.825 50.932 176.31 49.4474 176.31 46.4784V44.6969C175.889 45.5134 175.271 46.1691 174.454 46.6639C173.638 47.134 172.735 47.3691 171.745 47.3691C169.914 47.3691 168.405 46.7381 167.217 45.4763C166.054 44.1897 165.473 42.5938 165.473 40.6887C165.473 38.7588 166.054 37.1629 167.217 35.901C168.405 34.6144 169.914 33.9711 171.745 33.9711C173.576 33.9711 175.06 34.7258 176.199 36.2351V34.1938H179.093ZM172.227 44.734C173.39 44.734 174.343 44.3381 175.085 43.5464C175.827 42.7299 176.199 41.7278 176.199 40.5402C176.199 39.3278 175.815 38.3258 175.048 37.534C174.306 36.7175 173.353 36.3093 172.19 36.3093C171.027 36.3093 170.087 36.7299 169.37 37.5711C168.677 38.3876 168.331 39.3773 168.331 40.5402C168.331 41.7278 168.689 42.7299 169.407 43.5464C170.124 44.3381 171.065 44.734 172.227 44.734ZM196.148 42.3588H185.311C185.385 43.3485 185.843 44.1526 186.684 44.7711C187.525 45.3897 188.503 45.699 189.616 45.699C191.373 45.699 192.684 45.1546 193.55 44.066L195.22 45.8845C193.736 47.4433 191.793 48.2227 189.393 48.2227C187.414 48.2227 185.756 47.567 184.42 46.2557C183.084 44.9443 182.416 43.2124 182.416 41.0598C182.416 38.9567 183.097 37.2495 184.457 35.9381C185.818 34.6268 187.464 33.9711 189.393 33.9711C191.323 33.9711 192.932 34.5526 194.218 35.7155C195.505 36.8783 196.148 38.4247 196.148 40.3546V42.3588ZM193.253 40.0577C193.253 38.9443 192.894 38.066 192.177 37.4227C191.484 36.7794 190.581 36.4577 189.468 36.4577C188.354 36.4577 187.377 36.7918 186.536 37.4598C185.719 38.1278 185.311 38.9938 185.311 40.0577H193.253ZM202.268 48H199.373V28.7381H202.268V48Z" fill="#9EFB54"/>
<path d="M45.8604 20.1504C44.5857 21.5421 43.5142 23.1726 42.6805 24.9768L51.4314 33.1896L50.4829 34.2008L42.1099 26.343C41.4278 28.1433 40.9686 30.0877 40.7624 32.1205L49.3833 36.4786L48.7571 37.717L40.6557 33.6211C40.5843 35.4357 40.7134 37.3072 41.0593 39.199L48.5205 39.816L48.4069 41.1983L41.3584 40.6161C41.4135 40.8455 41.4708 41.0752 41.5324 41.3049C41.8612 42.5302 42.2701 43.7051 42.7477 44.8257C43.3977 44.7058 44.0694 44.5827 44.812 44.4429C46.7976 44.0694 48.7525 43.6963 48.7525 43.6963L49.0122 45.0576C49.0122 45.0576 47.0552 45.4327 45.0671 45.8068C44.4724 45.9187 43.8946 46.0272 43.3461 46.1292C43.9881 47.4285 44.728 48.6442 45.5472 49.7659L50.0629 47.2217L50.7426 48.43L46.4078 50.8746C47.3134 51.9723 48.299 52.9665 49.3486 53.8433L50.622 52.3334C50.7244 50.8092 50.9903 49.5335 51.6889 48.4948C52.1593 47.7953 52.8348 47.246 53.7043 46.8667C53.0909 45.9151 52.6041 44.8393 52.2849 43.6498C51.2068 39.6309 52.328 35.5978 54.9869 33.4007L45.8602 20.1504H45.8604ZM70.4151 20.1504L61.2887 33.4007C63.9476 35.5978 65.0712 39.6308 63.993 43.6498C63.6768 44.8282 63.1938 45.894 62.5874 46.839C63.5037 47.2386 64.1872 47.8411 64.6285 48.5947C65.2081 49.5842 65.4074 50.7557 65.4751 52.1176L66.9292 53.8432C67.9786 52.9664 68.9645 51.9723 69.8701 50.8744L65.533 48.43L66.2149 47.2217L70.7305 49.7659C71.5499 48.6439 72.2895 47.4287 72.9317 46.1292C72.3825 46.0272 71.803 45.9187 71.2083 45.8068C69.2202 45.4327 67.2631 45.0576 67.2631 45.0576L67.5229 43.6962C67.5229 43.6962 69.4802 44.0693 71.4658 44.4429C72.1537 44.5724 72.8417 44.7008 73.53 44.8281C74.0173 43.6836 74.4235 42.5063 74.7454 41.3049C74.807 41.0752 74.8643 40.8455 74.9193 40.6161L67.8708 41.1981L67.7573 39.8158L75.2185 39.199C75.5644 37.3072 75.6913 35.4357 75.6197 33.621L67.5183 37.7169L66.8921 36.4784L75.5154 32.1204C75.3088 30.0868 74.8507 28.1415 74.1679 26.3406L65.795 34.2007L64.8442 33.1896L73.5949 24.9768C72.761 23.1726 71.6898 21.5422 70.4151 20.1504H70.4151ZM58.0068 39.5259C57.2311 39.5259 56.5097 39.9224 55.945 40.6486C55.3802 41.3747 55.0056 42.422 55.0056 43.5942C55.0056 44.7663 55.3801 45.8135 55.9449 46.5397C56.5097 47.2659 57.2311 47.6647 58.0068 47.6647C58.7825 47.6647 59.5016 47.2659 60.0664 46.5398C60.6312 45.8136 61.0057 44.7664 61.0057 43.5943C61.0057 42.4222 60.6311 41.3749 60.0664 40.6487C59.5016 39.9226 58.7825 39.5262 58.0068 39.5262V39.5259ZM60.9477 47.7783C60.1788 48.6051 59.149 49.1396 58.0067 49.1396C56.8966 49.1396 55.8922 48.6351 55.1308 47.8478C54.9332 47.8968 54.7488 47.9505 54.5787 48.0102C53.7279 48.3085 53.214 48.7123 52.8393 49.2697C52.1572 50.2835 51.9826 52.0195 51.9555 54.4092H64.1135C64.1034 52.0676 64.0278 50.313 63.4315 49.2951C63.1035 48.7347 62.6451 48.3342 61.8312 48.0287C61.5739 47.9321 61.2796 47.8479 60.9476 47.7782L60.9477 47.7783Z" fill="#9EFB54"/>
</svg>
