<svg width="23" height="23" viewBox="0 0 23 23" fill="none" xmlns="http://www.w3.org/2000/svg">
<path fill-rule="evenodd" clip-rule="evenodd" d="M11.866 5.6754C8.85703 5.51699 6.5089 7.61296 5.9911 10.8935C5.5623 13.6102 6.32255 16.9205 6.97284 17.0871C7.24865 17.1578 7.91238 16.6482 8.39528 16.1911C8.48607 16.1051 8.62334 16.0907 8.72981 16.156C9.48256 16.6181 10.3348 16.9653 11.2744 17.0148C14.3635 17.1774 17.101 14.7504 17.2629 11.6492C17.4247 8.54794 14.9552 5.83801 11.866 5.6754ZM6.82723 21.4248C6.71073 21.342 6.55021 21.3644 6.45257 21.469C5.14755 22.8662 1.80767 23.8463 1.65468 21.9393C1.65468 20.4451 1.32036 19.186 0.952278 17.7997C0.501468 16.1019 0 14.2132 0 11.4683C0 4.92263 5.34767 0 11.6882 0C18.0287 0 23 5.16297 23 11.5318C23 17.9007 17.8705 22.9365 11.7482 22.9365C9.57615 22.9365 8.52213 22.6294 6.82723 21.4248Z" fill="white"/>
</svg>
