<svg width="23" height="23" viewBox="0 0 23 23" fill="none" xmlns="http://www.w3.org/2000/svg">
<path fill-rule="evenodd" clip-rule="evenodd" d="M11.4967 0C5.15692 0 0 5.15836 0 11.4999C0 14.0149 0.811058 16.3473 2.1898 18.2404L0.756887 22.5131L5.17713 21.1004C6.99516 22.3038 9.16475 23 11.5033 23C17.8431 23 23 17.8414 23 11.5001C23 5.15856 17.8431 0.000190099 11.5033 0.000190099L11.4967 0ZM8.28616 5.84144C8.06317 5.30738 7.89417 5.28716 7.55635 5.27342C7.44133 5.26674 7.31314 5.26007 7.17103 5.26007C6.73155 5.26007 6.27204 5.38848 5.99488 5.6724C5.65706 6.01718 4.81889 6.8216 4.81889 8.47128C4.81889 10.121 6.02196 11.7165 6.1841 11.9397C6.3531 12.1626 8.52954 15.597 11.9089 16.9968C14.5515 18.092 15.3357 17.9905 15.9371 17.862C16.8157 17.6728 17.9175 17.0235 18.1946 16.2395C18.4718 15.4551 18.4718 14.7857 18.3905 14.6438C18.3095 14.5018 18.0863 14.4209 17.7485 14.2517C17.4107 14.0826 15.7681 13.2713 15.4572 13.1631C15.1529 13.0483 14.8624 13.0889 14.6328 13.4135C14.3083 13.8664 13.9907 14.3263 13.7338 14.6033C13.531 14.8197 13.1997 14.8468 12.9227 14.7317C12.5509 14.5764 11.5102 14.211 10.2259 13.0685C9.23228 12.183 8.55646 11.0811 8.36056 10.7499C8.16447 10.4119 8.34032 10.2156 8.49559 10.0332C8.66459 9.8235 8.82675 9.67487 8.99575 9.47872C9.16476 9.28277 9.25937 9.18126 9.36753 8.95134C9.48255 8.72829 9.40127 8.49837 9.32021 8.32932C9.23914 8.16027 8.56331 6.51058 8.28616 5.84144Z" fill="white"/>
</svg>
