<svg width="71" height="58" viewBox="0 0 71 58" fill="none" xmlns="http://www.w3.org/2000/svg">
<g clip-path="url(#clip0_500_891)">
<path d="M60.793 22.3125C64.2793 22.3125 67.1055 19.4863 67.1055 16C67.1055 12.5137 64.2793 9.6875 60.793 9.6875C57.3067 9.6875 54.4805 12.5137 54.4805 16C54.4805 19.4863 57.3067 22.3125 60.793 22.3125Z" fill="#D2CACA"/>
<path d="M35.5 12.9707C38.9863 12.9707 41.8125 10.1445 41.8125 6.6582C41.8125 3.17191 38.9863 0.345703 35.5 0.345703C32.0137 0.345703 29.1875 3.17191 29.1875 6.6582C29.1875 10.1445 32.0137 12.9707 35.5 12.9707Z" fill="#D2CACA"/>
<path d="M46.0202 28.6035V22.291C46.0202 20.6168 45.3551 19.0112 44.1713 17.8274C42.9875 16.6436 41.3819 15.9785 39.7077 15.9785H31.291C29.6168 15.9785 28.0112 16.6436 26.8274 17.8274C25.6436 19.0112 24.9785 20.6168 24.9785 22.291V28.6035H46.0202Z" fill="#D2CACA"/>
<path d="M10.4395 22.3125C13.9258 22.3125 16.752 19.4863 16.752 16C16.752 12.5137 13.9258 9.6875 10.4395 9.6875C6.95316 9.6875 4.12695 12.5137 4.12695 16C4.12695 19.4863 6.95316 22.3125 10.4395 22.3125Z" fill="#D2CACA"/>
<path d="M65.0841 25.4049H60.8757C57.3912 25.4049 53.3849 28.2308 53.3849 31.7174L64.8315 47.667H71.3124V31.7174C71.3125 30.0577 70.659 28.4647 69.4933 27.2833C68.3277 26.1019 66.7436 25.427 65.0841 25.4049ZM21.8224 30.6759L15.1101 41.2283H10.2495L17.614 30.7074C17.614 27.2145 14.7945 25.3418 11.3016 25.3418H6.12109C4.44691 25.3418 2.84131 26.0069 1.65748 27.1907C0.473659 28.3745 -0.191406 29.9801 -0.191406 31.6543V43.3324C-0.191406 44.4485 0.25197 45.5189 1.04119 46.3082C1.8304 47.0974 2.90081 47.5408 4.01693 47.5408H19.7182L19.592 49.7333H8.48197L3.93697 57.9943H67.062L49.1765 30.6759H21.8224Z" fill="#D2CACA"/>
</g>
<defs>
<clipPath id="clip0_500_891">
<rect width="71" height="58" fill="white"/>
</clipPath>
</defs>
</svg>
