<svg width="64" height="64" viewBox="0 0 64 64" fill="none" xmlns="http://www.w3.org/2000/svg">
<path d="M62.3286 35.8627C59.5398 34.9263 57.6806 33.5217 57.6806 32.1171C57.6806 30.7124 59.5398 29.0737 62.3286 28.3714C63.4907 27.9032 64.1879 26.7327 63.9555 25.5622C63.0259 21.3483 61.6314 17.6026 59.075 14.0911C58.3778 13.1547 57.2158 12.6865 56.0538 13.3888C53.4973 14.7934 50.9409 15.0275 50.0113 14.0911C49.0817 13.1547 49.3141 10.5795 50.7085 8.00438C51.1733 6.83386 50.9409 5.66334 50.0113 4.96103C46.5252 2.62 42.5744 0.981269 38.6235 0.0448547C37.4615 -0.189249 36.2995 0.513062 35.8347 1.68358C34.905 4.49282 33.5106 6.36565 32.1162 6.36565C30.7218 6.36565 29.095 4.49282 28.3977 1.68358C27.9329 0.513062 26.7709 -0.189249 25.6089 0.0448547C21.4256 0.981269 17.7072 2.38589 14.2211 4.96103C13.0591 5.42924 12.8267 6.83386 13.2915 7.77028C14.6859 10.3454 14.9183 12.9206 13.9887 13.857C13.0591 14.7934 10.7351 14.5593 7.94624 13.1547C6.78423 12.6865 5.62221 12.9206 4.925 13.857C2.60097 17.3685 0.974143 21.3483 0.0445289 25.328C-0.187875 26.4986 0.509336 27.6691 1.67135 28.1373C4.46019 29.0737 6.31942 30.4783 6.31942 31.8829C6.31942 33.2876 4.46019 34.9263 1.67135 35.6286C0.509336 36.0968 -0.187875 37.2673 0.0445289 38.4379C0.974143 42.6517 2.36856 46.3974 4.925 49.9089C5.62221 50.8453 6.78423 51.3135 7.94624 50.6112C10.5027 49.2066 13.0591 48.9725 13.9887 49.9089C14.9183 50.8453 14.6859 53.4205 13.2915 55.9956C12.8267 57.1661 13.0591 58.3367 13.9887 59.039C17.4748 61.38 21.4256 63.0187 25.3765 63.9551C26.5385 64.1892 27.7005 63.4869 28.1653 62.3164C29.095 59.5072 30.4894 57.6343 31.8838 57.6343C33.2782 57.6343 34.905 59.5072 35.6023 62.3164C35.8347 63.2528 36.7643 63.9551 37.9263 63.9551C38.1587 63.9551 38.1587 63.9551 38.3911 63.9551C42.5744 63.0187 46.2928 61.6141 49.7789 59.039C50.7085 58.3367 51.1733 57.1661 50.4761 55.9956C49.0816 53.4205 48.8492 50.8453 49.7789 49.9089C50.7085 48.9725 53.2649 49.2066 55.8214 50.6112C56.9834 51.0794 58.1454 50.8453 58.8426 49.9089C61.1666 46.3974 62.7935 42.4176 63.7231 38.4379C64.1879 37.5014 63.4907 36.3309 62.3286 35.8627ZM32.1162 48.5043C23.0525 48.5043 15.848 41.2471 15.848 32.1171C15.848 22.987 23.0525 15.7298 32.1162 15.7298C41.1799 15.7298 48.3844 22.987 48.3844 32.1171C48.3844 41.2471 41.1799 48.5043 32.1162 48.5043Z" fill="#EFEFEF"/>
</svg>
