<svg width="53" height="53" viewBox="0 0 53 53" fill="none" xmlns="http://www.w3.org/2000/svg">
<path d="M52.7616 42.2465L52.4978 41.4515C51.873 39.5941 49.8251 37.6569 47.9437 37.1466L40.9806 35.2441C39.0924 34.7303 36.3988 35.4212 35.0173 36.8028L32.4972 39.3234C23.3387 36.8482 16.1571 29.665 13.6857 20.5066L16.2058 17.986C17.5874 16.6042 18.2781 13.9137 17.7643 12.0251L15.8656 5.05728C15.3519 3.17211 13.4115 1.12385 11.558 0.505826L10.7632 0.238531C8.90613 -0.379492 6.25766 0.245529 4.87622 1.62722L1.10657 5.40101C0.43312 6.07103 0.00270489 7.98742 0.00270489 7.99442C-0.129141 19.9649 4.56377 31.4979 13.0297 39.9655C21.4748 48.4122 32.9625 53.0991 44.896 52.9984C44.9585 52.9984 46.93 52.5748 47.6035 51.9047L51.3731 48.1343C52.7546 46.7528 53.3794 44.1039 52.7616 42.2465Z" fill="white"/>
</svg>
