<svg width="57" height="64" viewBox="0 0 57 64" fill="none" xmlns="http://www.w3.org/2000/svg">
<path d="M6.33333 63.3333C4.59167 63.3333 3.10069 62.7132 1.86042 61.4729C0.620139 60.2326 0 58.7417 0 57V12.6667C0 10.925 0.620139 9.43403 1.86042 8.19375C3.10069 6.95347 4.59167 6.33333 6.33333 6.33333H19.6333C20.3194 4.43333 21.4674 2.90278 23.0771 1.74167C24.6868 0.580556 26.4944 0 28.5 0C30.5056 0 32.3132 0.580556 33.9229 1.74167C35.5326 2.90278 36.6806 4.43333 37.3667 6.33333H50.6667C52.4083 6.33333 53.8993 6.95347 55.1396 8.19375C56.3799 9.43403 57 10.925 57 12.6667V57C57 58.7417 56.3799 60.2326 55.1396 61.4729C53.8993 62.7132 52.4083 63.3333 50.6667 63.3333H6.33333ZM6.33333 57H50.6667V12.6667H6.33333V57ZM12.6667 50.6667H34.8333V44.3333H12.6667V50.6667ZM12.6667 38H44.3333V31.6667H12.6667V38ZM12.6667 25.3333H44.3333V19H12.6667V25.3333ZM30.2021 9.61875C30.6507 9.17014 30.875 8.60278 30.875 7.91667C30.875 7.23056 30.6507 6.66319 30.2021 6.21458C29.7535 5.76597 29.1861 5.54167 28.5 5.54167C27.8139 5.54167 27.2465 5.76597 26.7979 6.21458C26.3493 6.66319 26.125 7.23056 26.125 7.91667C26.125 8.60278 26.3493 9.17014 26.7979 9.61875C27.2465 10.0674 27.8139 10.2917 28.5 10.2917C29.1861 10.2917 29.7535 10.0674 30.2021 9.61875Z" fill="#D2CACA"/>
</svg>
