<svg width="124" height="127" viewBox="0 0 124 127" fill="none" xmlns="http://www.w3.org/2000/svg">
<g clip-path="url(#clip0_460_148)">
<path d="M61.9281 27.7372C69.464 27.7372 75.573 21.528 75.573 13.8686C75.573 6.20917 69.464 0 61.9281 0C54.3922 0 48.2832 6.20917 48.2832 13.8686C48.2832 21.528 54.3922 27.7372 61.9281 27.7372Z" fill="white"/>
<path d="M106.033 31.8336H17.8288C16.084 31.8336 14.4106 32.5381 13.1769 33.7921C11.9431 35.0461 11.25 36.7468 11.25 38.5202C11.25 40.2936 11.9431 41.9944 13.1769 43.2484C14.4106 44.5024 16.084 45.2069 17.8288 45.2069H42.6527C44.3364 45.2069 46.3076 45.9721 47.4236 48.9217C48.7271 52.3467 48.0888 58.9615 47.2847 64.0855L46.2321 70.1406C46.234 70.1563 46.2324 70.1724 46.2274 70.1874C46.2223 70.2024 46.2139 70.216 46.2028 70.2273L37.7723 118.968C37.4665 120.737 37.8627 122.557 38.8741 124.031C39.8856 125.504 41.4299 126.51 43.1693 126.828C44.0292 126.983 44.9108 126.962 45.7628 126.768C46.6149 126.573 47.4204 126.209 48.1326 125.695C48.8449 125.182 49.4497 124.529 49.9119 123.776C50.3741 123.023 50.6845 122.184 50.8251 121.308L56.6509 87.4293C56.6509 87.4293 58.5198 79.383 61.931 79.383C65.3983 79.383 67.2282 87.4293 67.2282 87.4293L73.054 121.338C73.195 122.222 73.5075 123.068 73.9735 123.828C74.4396 124.587 75.0497 125.245 75.7684 125.763C76.4871 126.28 77.2999 126.648 78.1596 126.843C79.0192 127.038 79.9085 127.057 80.7755 126.899C81.6426 126.741 82.47 126.41 83.2097 125.924C83.9494 125.438 84.5864 124.807 85.0838 124.068C85.5811 123.329 85.9288 122.497 86.1065 121.62C86.2843 120.743 86.2885 119.839 86.119 118.96L77.686 70.2198C77.6878 70.2043 77.6863 70.1885 77.6817 70.1736C77.677 70.1587 77.6694 70.1449 77.6592 70.1332L76.6041 64.078C75.8001 58.9541 75.1617 52.3393 76.4653 48.9142C77.5763 45.9721 79.6109 45.1994 81.163 45.1994H106.033C107.778 45.1994 109.451 44.495 110.685 43.241C111.919 41.987 112.612 40.2862 112.612 38.5128C112.612 36.7394 111.919 35.0386 110.685 33.7846C109.451 32.5307 107.778 31.8262 106.033 31.8262V31.8336Z" fill="white"/>
</g>
<defs>
<clipPath id="clip0_460_148">
<rect width="124" height="127" fill="white"/>
</clipPath>
</defs>
</svg>
