<svg width="111" height="111" viewBox="0 0 111 111" fill="none" xmlns="http://www.w3.org/2000/svg">
<g clip-path="url(#clip0_460_166)">
<path d="M23.75 7.875V23.75H7.875V7.875H23.75ZM-0.0625 -0.0625V31.6875H31.6875V-0.0625H-0.0625ZM63.4375 19.7812V35.6562H47.5625V19.7812H63.4375ZM39.625 11.8438V43.5938H71.375V11.8438H39.625ZM23.75 55.5V71.375H7.875V55.5H23.75ZM-0.0625 47.5625V79.3125H31.6875V47.5625H-0.0625Z" fill="white"/>
<path d="M79.3125 31.6875V55.5H55.5V79.3125H31.6875V111.062H111.062V31.6875H79.3125ZM63.4375 63.4375H79.3125V79.3125H63.4375V63.4375ZM55.5 103.125H39.625V87.25H55.5V103.125ZM79.3125 103.125H63.4375V87.25H79.3125V103.125ZM103.125 103.125H87.25V87.25H103.125V103.125ZM103.125 79.3125H87.25V63.4375H103.125V79.3125ZM87.25 55.5V39.625H103.125V55.5H87.25Z" fill="white"/>
</g>
<defs>
<clipPath id="clip0_460_166">
<rect width="111" height="111" fill="white"/>
</clipPath>
</defs>
</svg>
