<svg width="125" height="125" viewBox="0 0 125 125" fill="none" xmlns="http://www.w3.org/2000/svg">
<g clip-path="url(#clip0_460_174)">
<path d="M1.20424e-05 50.7811C-0.00789874 39.2898 3.8819 28.1356 11.0338 19.1412C18.1856 10.1467 28.1767 3.84391 39.3743 1.26264C50.5719 -1.31863 62.3139 -0.0257153 72.6816 4.93012C83.0493 9.88595 91.4296 18.2117 96.4531 28.5467C103.725 32.0916 110.044 37.3223 114.885 43.8034C119.726 50.2844 122.949 57.8283 124.285 65.8068C125.621 73.7852 125.031 81.9674 122.565 89.6719C120.1 97.3765 115.829 104.38 110.109 110.101C104.388 115.821 97.3845 120.092 89.6799 122.557C81.9754 125.023 73.7932 125.613 65.8147 124.277C57.8363 122.941 50.2924 119.718 43.8113 114.877C37.3302 110.036 32.0995 103.717 28.5547 96.4452C19.9921 92.2769 12.7742 85.7849 7.72506 77.7104C2.6759 69.6359 -0.000996899 60.3043 1.20424e-05 50.7811ZM40.1875 100.453C43.9171 105.29 48.6351 109.276 54.0268 112.146C59.4186 115.016 65.3602 116.703 71.4554 117.095C77.5507 117.487 83.6595 116.576 89.3746 114.421C95.0898 112.266 100.28 108.917 104.599 104.599C108.918 100.28 112.266 95.0896 114.421 89.3745C116.576 83.6594 117.488 77.5505 117.095 71.4553C116.703 65.36 115.016 59.4184 112.146 54.0267C109.276 48.635 105.29 43.917 100.453 40.1873C102.222 48.472 101.89 57.0677 99.488 65.1914C97.0858 73.3151 92.6893 80.7087 86.6991 86.6989C80.7089 92.6892 73.3152 97.0856 65.1915 99.4879C57.0678 101.89 48.4722 102.222 40.1875 100.453ZM34.4609 90.5389C37.3047 91.716 40.2839 92.5754 43.3984 93.117L31.8828 81.6014C32.4245 84.7108 33.2839 87.6899 34.4609 90.5389ZM54.8828 93.5545C57.9972 93.2598 61.0701 92.6258 64.0469 91.6639L34.1719 61.7967C33.1216 64.6269 32.3472 67.552 31.8594 70.5311L54.8828 93.5545ZM71.7344 88.3045C74.0573 87.0025 76.2396 85.5024 78.2813 83.8045L42.3281 47.8592C40.6203 49.8771 39.0861 52.0358 37.7422 54.3123L71.7344 88.3045ZM83.8047 78.2733C85.4974 76.242 86.9974 74.0624 88.3047 71.7342L54.3203 37.7342C52.0411 39.0778 49.8797 40.6119 47.8594 42.3202L83.7969 78.2733H83.8047ZM91.6641 64.0389C92.6172 61.1118 93.2474 58.0597 93.5547 54.8827L70.5312 31.8592C67.5104 32.3592 64.599 33.1301 61.7969 34.1717L91.6641 64.0467V64.0389ZM93.1172 43.3983C92.5838 40.3346 91.7193 37.3379 90.5391 34.4608C87.662 33.2805 84.6652 32.4161 81.6016 31.8827L93.1172 43.3983Z" fill="white"/>
</g>
<defs>
<clipPath id="clip0_460_174">
<rect width="125" height="125" fill="white"/>
</clipPath>
</defs>
</svg>
