<svg width="117" height="117" viewBox="0 0 117 117" fill="none" xmlns="http://www.w3.org/2000/svg">
<g clip-path="url(#clip0_460_155)">
<path d="M95.689 42.5616C90.6419 42.5616 86.2589 41.0563 82.54 38.0457C78.8211 35.0352 76.3418 31.2277 75.1021 26.6233H41.7647C40.7906 30.3422 38.9542 33.5529 36.2553 36.2553C33.5565 38.9577 30.3458 40.7942 26.6233 41.7647V75.1021C31.2277 76.3418 35.0352 78.8211 38.0457 82.54C41.0563 86.2589 42.5616 90.6419 42.5616 95.689C42.5616 101.533 40.4807 106.536 36.3191 110.698C32.1574 114.859 27.1546 116.94 21.3106 116.94C15.4665 116.94 10.4637 114.859 6.30205 110.698C2.1404 106.536 0.0595703 101.533 0.0595703 95.689C0.0595703 90.6419 1.56485 86.2589 4.57541 82.54C7.58596 78.8211 11.3934 76.3418 15.9978 75.1021V41.7647C11.3934 40.525 7.58596 38.0457 4.57541 34.3268C1.56485 30.6079 0.0595703 26.2691 0.0595703 21.3106C0.0595703 15.4665 2.1404 10.4637 6.30205 6.30205C10.4637 2.1404 15.4665 0.0595703 21.3106 0.0595703C26.2691 0.0595703 30.6079 1.56485 34.3268 4.57541C38.0457 7.58596 40.525 11.3934 41.7647 15.9978H75.1021C76.3418 11.3934 78.8211 7.58596 82.54 4.57541C86.2589 1.56485 90.6419 0.0595703 95.689 0.0595703C101.533 0.0595703 106.536 2.1404 110.698 6.30205C114.859 10.4637 116.94 15.4665 116.94 21.3106C116.94 27.1546 114.859 32.1574 110.698 36.3191C106.536 40.4807 101.533 42.5616 95.689 42.5616ZM95.689 116.94C89.845 116.94 84.8422 114.859 80.6805 110.698C76.5189 106.536 74.4381 101.533 74.4381 95.689C74.4381 89.845 76.5189 84.8422 80.6805 80.6805C84.8422 76.5189 89.845 74.4381 95.689 74.4381C101.533 74.4381 106.536 76.5189 110.698 80.6805C114.859 84.8422 116.94 89.845 116.94 95.689C116.94 101.533 114.859 106.536 110.698 110.698C106.536 114.859 101.533 116.94 95.689 116.94Z" fill="white"/>
</g>
<defs>
<clipPath id="clip0_460_155">
<rect width="117" height="117" fill="white"/>
</clipPath>
</defs>
</svg>
